<svg width="43" height="43" viewBox="0 0 43 43" fill="none" xmlns="http://www.w3.org/2000/svg">
<path d="M21.5 11.646C22.688 11.646 23.8273 12.1179 24.6673 12.9579C25.5073 13.7979 25.9792 14.9372 25.9792 16.1252C25.9792 16.7134 25.8634 17.2958 25.6383 17.8393C25.4132 18.3827 25.0832 18.8765 24.6673 19.2924C24.2514 19.7083 23.7576 20.0383 23.2141 20.2634C22.6707 20.4885 22.0883 20.6043 21.5 20.6043C20.3121 20.6043 19.1728 20.1324 18.3328 19.2924C17.4928 18.4524 17.0209 17.3131 17.0209 16.1252C17.0209 14.9372 17.4928 13.7979 18.3328 12.9579C19.1728 12.1179 20.3121 11.646 21.5 11.646ZM21.5 3.5835C24.8263 3.5835 28.0163 4.90485 30.3683 7.25687C32.7204 9.60888 34.0417 12.7989 34.0417 16.1252C34.0417 25.5314 21.5 39.4168 21.5 39.4168C21.5 39.4168 8.95837 25.5314 8.95837 16.1252C8.95837 12.7989 10.2797 9.60888 12.6317 7.25687C14.9838 4.90485 18.1738 3.5835 21.5 3.5835ZM21.5 7.16683C19.1241 7.16683 16.8456 8.11065 15.1655 9.79066C13.4855 11.4707 12.5417 13.7493 12.5417 16.1252C12.5417 17.9168 12.5417 21.5002 21.5 33.5222C30.4584 21.5002 30.4584 17.9168 30.4584 16.1252C30.4584 13.7493 29.5146 11.4707 27.8345 9.79066C26.1545 8.11065 23.8759 7.16683 21.5 7.16683Z" fill="#D14E5F"/>
</svg>
